<svg width="520" height="360" viewBox="0 0 520 360" fill="none" xmlns="http://www.w3.org/2000/svg" role="img" aria-label="ORIGIN">
  <rect width="520" height="360" rx="22" fill="#D9DEDA"/>
  <path d="M259.8 38C187.2 38 128.4 96.8 128.4 169.4C128.4 244.1 189.8 304.3 264.3 300.5C232.1 294.6 203.1 276.9 182.3 249.8C139.5 194.1 149.9 114.4 205.6 71.5C221.9 58.9 240.3 47.9 259.8 38Z" fill="white"/>
  <path d="M216.8 61.7C273.8 24.8 349.6 38.3 391.2 91.4C437.5 150.5 426.9 236.4 367.8 282.7C350.3 296.4 330.1 305.1 309.3 308.8C352.7 314.4 397.9 297.7 427.3 260.2C477.7 195.8 466.3 102.5 401.9 52.2C348.7 10.5 273.5 14.9 216.8 61.7Z" fill="white"/>
  <path d="M180.2 198.5C193.3 254.2 255 287.5 312.3 268.2C341 258.5 363.4 237.9 376.4 213.4C356.5 249.4 315.5 270.7 273.9 264C228.6 256.8 192.6 231.6 180.2 198.5Z" fill="white"/>
  <circle cx="359.5" cy="211.7" r="30.2" fill="white"/>
  <text x="260" y="350" fill="white" text-anchor="middle" font-family="Arial, Helvetica, sans-serif" font-size="58" font-weight="800" letter-spacing="0">ORIGIN</text>
</svg>
